<?xml version="1.0" encoding="UTF-8" standalone="no"?>
<!DOCTYPE svg PUBLIC "-//W3C//DTD SVG 1.1//EN"
 "http://www.w3.org/Graphics/SVG/1.1/DTD/svg11.dtd">
<!-- Generated by graphviz version 2.40.1 (20161225.0304)
 -->
<!-- Title: G Pages: 1 -->
<svg width="130pt" height="188pt"
 viewBox="0.00 0.00 130.00 188.00" xmlns="http://www.w3.org/2000/svg" xmlns:xlink="http://www.w3.org/1999/xlink">
<g id="graph0" class="graph" transform="scale(1 1) rotate(0) translate(4 184)">
<title>G</title>
<polygon fill="#ffffff" stroke="transparent" points="-4,4 -4,-184 126,-184 126,4 -4,4"/>
<!-- A0 -->
<g id="node1" class="node">
<title>A0</title>
<polygon fill="none" stroke="#000000" points="0,-148 0,-180 122,-180 122,-148 0,-148"/>
<text text-anchor="start" x="31.2745" y="-161" font-family="Helvetica,sans-Serif" font-size="10.00" fill="#000000">DemoKlasse </text>
<polygon fill="none" stroke="#000000" points="0,-104 0,-148 122,-148 122,-104 0,-104"/>
<text text-anchor="start" x="36.277" y="-129" font-family="Helvetica,sans-Serif" font-size="10.00" fill="#000000"> &#45; wert : int </text>
<text text-anchor="start" x="59.6105" y="-117" font-family="Helvetica,sans-Serif" font-size="10.00" fill="#000000"> </text>
<polygon fill="none" stroke="#000000" points="0,0 0,-104 122,-104 122,0 0,0"/>
<text text-anchor="start" x="23.6345" y="-85" font-family="Helvetica,sans-Serif" font-size="10.00" fill="#000000"> + getWert() : int </text>
<text text-anchor="start" x="21.4135" y="-61" font-family="Helvetica,sans-Serif" font-size="10.00" fill="#000000">+ setWert() : void </text>
<text text-anchor="start" x="58.0805" y="-37" font-family="Helvetica,sans-Serif" font-size="10.00" fill="#000000">+</text>
<text text-anchor="start" x="9.884" y="-25" font-family="Helvetica,sans-Serif" font-size="10.00" fill="#000000">addieren(DemoKlasse)</text>
<text text-anchor="start" x="29.885" y="-13" font-family="Helvetica,sans-Serif" font-size="10.00" fill="#000000">: DemoKlasse</text>
</g>
</g>
</svg>
